HIERARCHY
ROOT SpineBase
{
  OFFSET 0.000000 0.000000 0.000000
  CHANNELS 6 Xposition Yposition Zposition Zrotation Xrotation Yrotation
  JOINT SpineMid
  {
    OFFSET 0.000000 31.552186 0.000000
    CHANNELS 3 Zrotation Xrotation Yrotation
    JOINT SpineShoulder
    {
      OFFSET -0.156757 23.419330 -1.000937
      CHANNELS 3 Zrotation Xrotation Yrotation
      JOINT Neck
      {
        OFFSET -0.084824 7.745586 -0.711399
        CHANNELS 3 Zrotation Xrotation Yrotation
        JOINT Head
        {
          OFFSET -0.127371 12.311428 3.974370
          CHANNELS 3 Zrotation Xrotation Yrotation
          End Site
          {
            OFFSET 0 0 0
          }
        }
      }
      JOINT ShoulderLeft
      {
        OFFSET -11.467399 -6.377525 -10.900094
        CHANNELS 3 Zrotation Xrotation Yrotation
        JOINT ElbowLeft
        {
          OFFSET -4.258508 -19.892830 -3.387019
          CHANNELS 3 Zrotation Xrotation Yrotation
          JOINT WristLeft
          {
            OFFSET -4.896686 -26.324759 5.170613
            CHANNELS 3 Zrotation Xrotation Yrotation
            JOINT HandLeft
            {
              OFFSET 0.046585 -10.389308 2.555064
              CHANNELS 3 Zrotation Xrotation Yrotation
              JOINT HandTipLeft
              {
                OFFSET -1.313470 -7.434905 -0.258183
                CHANNELS 3 Zrotation Xrotation Yrotation
                End Site
                {
                  OFFSET 0 0 0
                }
              }
              JOINT ThumbLeft
              {
                OFFSET -3.719582 2.413612 -2.493264
                CHANNELS 3 Zrotation Xrotation Yrotation
                End Site
                {
                  OFFSET 0 0 0
                }
              }
            }
          }
        }
      }
      JOINT ShoulderRight
      {
        OFFSET 12.433953 -4.939208 1.073708
        CHANNELS 3 Zrotation Xrotation Yrotation
        JOINT ElbowRight
        {
          OFFSET -16.641603 -18.223146 -8.857440
          CHANNELS 3 Zrotation Xrotation Yrotation
          JOINT WristRight
          {
            OFFSET -13.101902 -22.750922 -2.270518
            CHANNELS 3 Zrotation Xrotation Yrotation
            JOINT HandRight
            {
              OFFSET -1.571307 -6.913750 1.397631
              CHANNELS 3 Zrotation Xrotation Yrotation
              JOINT HandTipRight
              {
                OFFSET -4.491513 -8.206527 0.592879
                CHANNELS 3 Zrotation Xrotation Yrotation
                End Site
                {
                  OFFSET 0 0 0
                }
              }
              JOINT ThumbRight
              {
                OFFSET 4.817189 -0.514379 -1.774414
                CHANNELS 3 Zrotation Xrotation Yrotation
                End Site
                {
                  OFFSET 0 0 0
                }
              }
            }
          }
        }
      }
    }
  }
  JOINT HipLeft
  {
    OFFSET -6.270096 1.491920 -6.618815
    CHANNELS 3 Zrotation Xrotation Yrotation
    JOINT KneeLeft
    {
      OFFSET 4.637970 -41.310410 -1.284426
      CHANNELS 3 Zrotation Xrotation Yrotation
      JOINT AnkleLeft
      {
        OFFSET -1.278276 -32.009134 -3.635732
        CHANNELS 3 Zrotation Xrotation Yrotation
        JOINT FootLeft
        {
          OFFSET 9.965854 0.297822 5.489418
          CHANNELS 3 Zrotation Xrotation Yrotation
          End Site
          {
            OFFSET 0 0 0
          }
        }
      }
    }
  }
  JOINT HipRight
  {
    OFFSET 5.353117 1.616673 -0.523393
    CHANNELS 3 Zrotation Xrotation Yrotation
    JOINT KneeRight
    {
      OFFSET 7.113015 -42.494936 0.184331
      CHANNELS 3 Zrotation Xrotation Yrotation
      JOINT AnkleRight
      {
        OFFSET 3.789113 -30.988826 -0.027289
        CHANNELS 3 Zrotation Xrotation Yrotation
        JOINT FootRight
        {
          OFFSET -12.609204 0.265036 -8.807841
          CHANNELS 3 Zrotation Xrotation Yrotation
          End Site
          {
            OFFSET 0 0 0
          }
        }
      }
    }
  }
}
MOTION
Frames: 13
Frame Time: 0.033333
29.412925 75.926283 227.639939 -0.000000 0.000000 -27.673325 0.000000 0.000000 27.673325 -0.000000 0.000000 0.000000 -0.000000 0.000000 0.000000 0.000000 0.000000 0.000000 -0.000000 0.000000 0.000000 -0.000000 0.000000 0.000000 -0.000000 0.000000 0.000000 -0.000000 0.000000 0.000000 0.000000 0.000000 0.000000 0.000000 0.000000 0.000000 -0.000000 0.000000 0.000000 -0.000000 0.000000 0.000000 -0.000000 0.000000 0.000000 -0.000000 0.000000 0.000000 0.000000 0.000000 0.000000 0.000000 0.000000 0.000000 0.000000 0.000000 27.673325 -0.000000 0.000000 0.000000 -0.000000 0.000000 0.000000 0.000000 0.000000 0.000000 0.000000 0.000000 27.673325 -0.000000 0.000000 0.000000 -0.000000 0.000000 0.000000 0.000000 0.000000 0.000000
29.480671 75.962656 227.645057 0.068586 -0.053737 -28.045466 -0.085798 0.015180 28.045509 -0.000000 0.000000 0.000000 -0.000000 0.000000 0.000000 0.000000 0.000000 0.000000 -0.000000 0.000000 0.000000 -0.000000 0.000000 0.000000 -1.004468 0.707677 -0.238031 1.007475 -0.703389 0.250419 0.000000 0.000000 0.000000 0.000000 0.000000 0.000000 -1.725014 1.453951 -0.458304 3.308079 -2.716407 1.152540 -1.734230 0.296043 -0.379670 0.996811 1.994940 -0.699537 0.000000 0.000000 0.000000 0.000000 0.000000 0.000000 -0.085798 0.015180 28.045509 -0.000000 0.000000 0.000000 -0.555501 0.337708 -0.871233 0.000000 0.000000 0.000000 -0.085798 0.015180 28.045509 -0.000000 0.000000 0.000000 -0.000000 0.000000 0.000000 0.000000 0.000000 0.000000
29.535242 75.987722 227.648600 0.120781 -0.100316 -28.324000 -0.153917 0.031000 28.324147 -0.000000 0.000000 0.000000 -0.000000 0.000000 0.000000 0.000000 0.000000 0.000000 -0.000000 0.000000 0.000000 -0.000000 0.000000 0.000000 -1.833171 1.271639 -0.426018 1.843019 -1.257322 0.466588 0.000000 0.000000 0.000000 0.000000 0.000000 0.000000 -3.210068 2.725431 -0.821765 6.191070 -5.029505 2.289475 -3.233544 0.815501 -0.743511 2.068200 3.516726 -1.296310 0.000000 0.000000 0.000000 0.000000 0.000000 0.000000 -0.153917 0.031000 28.324147 -0.000000 0.000000 0.000000 -1.008808 0.622784 -1.605835 0.000000 0.000000 0.000000 -0.153917 0.031000 28.324147 -0.000000 0.000000 0.000000 -0.000000 0.000000 0.000000 0.000000 0.000000 0.000000
29.576637 76.001480 227.650567 0.156499 -0.139674 -28.509322 -0.204189 0.048040 28.509598 -0.000000 0.000000 0.000000 -0.000000 0.000000 0.000000 0.000000 0.000000 0.000000 -0.000000 0.000000 0.000000 -0.000000 0.000000 0.000000 -2.519332 1.713195 -0.576500 3.367574 -1.915586 0.691146 0.000000 0.000000 0.000000 0.000000 0.000000 0.000000 -4.461378 3.810588 -1.105850 8.635928 -6.957702 3.354739 -4.500125 1.452180 -1.082232 3.216433 4.664529 -1.797702 0.000000 0.000000 0.000000 0.000000 0.000000 0.000000 -0.204189 0.048040 28.509598 -0.000000 0.000000 0.000000 -1.359129 0.849839 -2.200869 0.000000 0.000000 0.000000 -0.204189 0.048040 28.509598 -0.000000 0.000000 0.000000 -0.000000 0.000000 0.000000 0.000000 0.000000 0.000000
29.604858 76.003931 227.650958 0.175681 -0.171766 -28.601841 -0.236470 0.066703 28.602242 -0.000000 0.000000 0.000000 -0.000000 0.000000 0.000000 0.000000 0.000000 0.000000 -0.000000 0.000000 0.000000 -0.000000 0.000000 0.000000 -3.086292 2.046230 -0.698037 4.269375 -2.232899 0.853545 0.000000 0.000000 0.000000 0.000000 0.000000 0.000000 -5.486581 4.709504 -1.324127 10.632162 -8.524690 4.303130 -5.540097 2.146294 -1.395304 4.445270 5.494568 -2.202892 0.000000 0.000000 0.000000 0.000000 0.000000 0.000000 -0.236470 0.066703 28.602242 -0.000000 0.000000 0.000000 -1.606101 1.014623 -2.654199 0.000000 0.000000 0.000000 -0.236470 0.066703 28.602242 -0.000000 0.000000 0.000000 -0.000000 0.000000 0.000000 0.000000 0.000000 0.000000
29.619903 75.995074 227.649774 0.178301 -0.196558 -28.601963 -0.250639 0.087214 28.602459 -0.000000 0.000000 0.000000 -0.000000 0.000000 0.000000 0.000000 0.000000 0.000000 -0.000000 0.000000 0.000000 -0.959948 0.095625 -0.205254 -2.597735 2.173631 -0.595641 5.103121 -2.413815 0.983549 0.000000 0.000000 0.000000 0.000000 0.000000 0.000000 -6.293974 5.424934 -1.487975 12.172770 -9.755568 5.100035 -6.362128 2.866299 -1.686446 5.759925 6.037758 -2.504955 0.000000 0.000000 0.000000 0.000000 0.000000 0.000000 -0.250639 0.087214 28.602459 -0.000000 0.000000 0.000000 -1.749619 1.114036 -2.964322 0.000000 0.000000 0.000000 -0.250639 0.087214 28.602459 -0.000000 0.000000 0.000000 -0.000000 0.000000 0.000000 0.000000 0.000000 0.000000
29.624826 75.987770 227.650188 0.165399 -0.218144 -28.524350 -0.249494 0.112680 28.524911 -0.000000 0.000000 0.000000 0.037920 -0.879295 -0.021100 0.000000 0.000000 0.000000 -0.000000 0.000000 0.000000 -1.362290 0.412614 -0.338923 -2.807752 1.440534 -0.633212 5.729136 -1.560847 1.040546 0.000000 0.000000 0.000000 0.000000 0.000000 0.000000 -8.465032 7.584780 -2.047916 16.497608 -13.153154 7.662023 -7.793030 3.064319 -1.946683 8.319644 7.725386 -3.249649 0.000000 0.000000 0.000000 0.000000 0.000000 0.000000 -0.249494 0.112680 28.524911 -0.000000 0.000000 0.000000 -1.888610 1.208814 -3.216614 0.000000 0.000000 0.000000 -0.249494 0.112680 28.524911 -0.000000 0.000000 0.000000 -0.000000 0.000000 0.000000 0.000000 0.000000 0.000000
29.610435 75.949871 227.647968 0.128462 -0.235703 -28.198165 -0.224591 0.147028 28.198718 -0.000000 0.000000 0.000000 0.061520 -0.930087 -0.029059 0.000000 0.000000 0.000000 0.809404 0.051682 -0.149457 -2.594256 0.869367 -0.360657 -2.629224 1.136147 -0.533611 8.276651 -1.386627 1.040310 0.000000 0.000000 0.000000 0.000000 0.000000 0.000000 -7.431749 6.530174 -1.773513 14.151312 -11.767739 6.507997 -7.529941 3.959806 -2.225718 8.982420 6.354001 -2.589139 0.000000 0.000000 0.000000 0.000000 0.000000 0.000000 -0.224591 0.147028 28.198718 -0.000000 0.000000 0.000000 -1.864829 1.197258 -3.262904 0.000000 0.000000 0.000000 -0.224591 0.147028 28.198718 -0.000000 0.000000 0.000000 -0.000000 0.000000 0.000000 0.000000 0.000000 0.000000
29.591902 75.913173 227.642634 0.093102 -0.241517 -27.920145 -0.195354 0.169810 27.920631 -0.000000 0.000000 0.000000 0.075740 -0.933306 -0.033578 0.000000 0.000000 0.000000 0.905398 0.143567 -0.186303 -3.154610 1.356476 -0.513405 -2.224686 0.956787 -0.361763 8.032575 -2.151547 1.171766 0.000000 0.000000 0.000000 0.000000 0.000000 0.000000 -8.444292 7.766201 -2.196212 16.218528 -13.781198 8.148802 -7.770073 5.173979 -2.643201 10.327386 6.508376 -2.815958 0.000000 0.000000 0.000000 0.000000 0.000000 0.000000 -0.195354 0.169810 27.920631 -0.000000 0.000000 0.000000 -1.549731 0.998249 -2.990389 0.000000 0.000000 0.000000 -0.195354 0.169810 27.920631 -0.000000 0.000000 0.000000 -0.000000 0.000000 0.000000 0.000000 0.000000 0.000000
29.560003 75.849135 227.631003 0.042225 -0.223539 -27.713980 -0.141340 0.178257 27.714283 -0.000000 0.000000 0.000000 0.119256 -0.859803 -0.046611 0.000000 0.000000 0.000000 0.770074 0.578571 -0.259012 -3.133149 1.507086 -0.583005 -2.755310 0.525701 -0.424442 7.226790 -0.843509 1.061358 0.000000 0.000000 0.000000 0.000000 0.000000 0.000000 -8.782681 7.367809 -1.719318 15.762373 -12.660571 6.947943 -6.881312 5.503554 -2.515934 10.211694 5.999736 -2.860184 0.000000 0.000000 0.000000 0.000000 0.000000 0.000000 -0.141340 0.178257 27.714283 -0.000000 0.000000 0.000000 -0.964088 0.630631 -2.405350 0.000000 0.000000 0.000000 -0.141340 0.178257 27.714283 -0.000000 0.000000 0.000000 -0.000000 0.000000 0.000000 0.000000 0.000000 0.000000
29.524196 75.776305 227.604925 -0.008031 -0.201725 -27.516846 -0.086076 0.182615 27.516969 -0.000000 0.000000 0.000000 0.165920 -0.839302 -0.061174 0.000000 0.000000 0.000000 0.915496 0.592936 -0.287786 -3.654501 1.678238 -0.657741 -2.050494 1.513475 -0.177586 6.968366 -2.468239 1.145647 0.000000 0.000000 0.000000 0.000000 0.000000 0.000000 -8.863439 7.064054 -1.448229 16.380203 -12.293091 6.582377 -8.241840 7.595912 -2.917342 11.254063 3.809285 -1.699779 0.000000 0.000000 0.000000 0.000000 0.000000 0.000000 -0.086076 0.182615 27.516969 -0.000000 0.000000 0.000000 -0.794719 0.534602 -2.455603 0.000000 0.000000 0.000000 -0.086076 0.182615 27.516969 -0.000000 0.000000 0.000000 -0.000000 0.000000 0.000000 0.000000 0.000000 0.000000
29.497212 75.773232 227.586476 -0.037599 -0.191355 -27.660995 -0.055533 0.186940 27.661023 -0.000000 0.000000 0.000000 0.191856 -0.799036 -0.069018 0.000000 0.000000 0.000000 1.258108 0.229375 -0.266374 -4.108565 2.128245 -0.691282 -1.852133 2.066932 -0.089300 4.806748 -2.218172 0.936865 0.000000 0.000000 0.000000 0.000000 0.000000 0.000000 -8.769714 6.859045 -1.340768 16.733693 -12.024794 6.389894 -9.196736 8.725232 -3.099036 11.919487 3.126349 -1.365450 0.000000 0.000000 0.000000 0.000000 0.000000 0.000000 -0.055533 0.186940 27.661023 -0.000000 0.000000 0.000000 -0.459867 0.333170 -2.248342 0.000000 0.000000 0.000000 -0.055533 0.186940 27.661023 -0.000000 0.000000 0.000000 -0.000000 0.000000 0.000000 0.000000 0.000000 0.000000
29.479420 75.786879 227.568231 -0.047516 -0.190045 -27.938325 -0.047062 0.190158 27.938324 -0.000000 0.000000 0.000000 -0.000000 0.000000 0.000000 0.000000 0.000000 0.000000 1.709744 -0.340098 -0.214039 -4.638632 2.906343 -0.746643 -1.069784 2.262005 0.151131 4.271587 -2.007085 0.639428 0.000000 0.000000 0.000000 0.000000 0.000000 0.000000 -8.753601 6.979567 -1.440377 17.105987 -12.002276 6.487074 -8.097126 8.880192 -2.966457 9.303988 3.253848 -1.963858 0.000000 0.000000 0.000000 0.000000 0.000000 0.000000 -0.047062 0.190158 27.938324 -0.000000 0.000000 0.000000 -0.184071 0.166540 -2.017131 0.000000 0.000000 0.000000 -0.047062 0.190158 27.938324 -0.000000 0.000000 0.000000 -0.000000 0.000000 0.000000 0.000000 0.000000 0.000000
